<svg width="960" height="960" viewBox="0 0 960 960" fill="none" xmlns="http://www.w3.org/2000/svg">
<g clip-path="url(#clip0_1_3)">
<path d="M794.812 596.157L794.812 693.192L529.804 481.2L169.187 730.592L169.188 535.32L387.9 382.376L169.188 207.373L169.188 110.28L452.644 337.027L794.812 97.784L794.812 298.013L594.901 436.261L794.812 596.157ZM232.712 562.101L232.712 615.869L734.624 268.797L734.624 211.099L232.712 562.101Z" fill="white" fill-opacity="0.5"/>
<path d="M792.812 575.157L792.812 672.192L527.804 460.2L167.187 709.592L167.188 514.32L385.9 361.376L167.188 186.373L167.188 89.2799L450.644 316.027L792.812 76.784L792.812 277.013L592.901 415.261L792.812 575.157ZM230.712 541.101L230.712 594.869L732.624 247.797L732.624 190.099L230.712 541.101Z" fill="white"/>
<path d="M224.048 887.805L214.616 856.495L176.966 856.653L167.798 888.042L155.798 888.093L188.057 783.256L203.057 783.193L236.348 887.753L224.048 887.805ZM199.557 806.908L196.202 793.872L194.702 793.878L191.457 806.942L179.775 846.741L211.874 846.606L199.557 806.908ZM247.463 887.707L247.421 877.807L260.621 877.751L260.264 792.852L247.064 792.907L247.022 783.008L285.422 782.846L285.463 792.746L272.263 792.801L272.621 877.701L285.821 877.645L285.863 887.545L247.463 887.707ZM336.577 776.33L347.977 776.282L348.172 822.482L349.672 822.476C351.15 817.369 353.535 813.709 356.826 811.495C360.216 809.181 364.311 808.014 369.111 807.994C373.711 807.974 377.765 808.907 381.273 810.792C384.781 812.678 387.742 815.365 390.157 818.855C392.572 822.345 394.39 826.587 395.611 831.582C396.832 836.577 397.455 842.175 397.481 848.375C397.507 854.575 396.931 860.177 395.752 865.182C394.573 870.187 392.791 874.445 390.406 877.955C388.021 881.465 385.082 884.177 381.59 886.092C378.098 888.007 374.052 888.974 369.452 888.993C364.652 889.013 360.548 887.93 357.138 885.745C353.829 883.459 351.413 879.769 349.892 874.675L348.392 874.682L348.445 887.281L337.045 887.329L336.577 776.33ZM365.959 878.808C372.259 878.781 377.051 876.811 380.334 872.897C383.618 868.883 385.244 863.326 385.214 856.226L385.149 840.626C385.119 833.526 383.446 828.033 380.129 824.147C376.812 820.161 372.004 818.182 365.704 818.208C363.304 818.218 361.006 818.578 358.809 819.287C356.712 819.996 354.866 821.004 353.271 822.31C351.777 823.617 350.533 825.172 349.541 826.976C348.648 828.78 348.207 830.782 348.216 832.982L348.348 864.182C348.357 866.382 348.815 868.38 349.723 870.176C350.73 871.972 351.987 873.516 353.492 874.81C355.098 876.103 356.952 877.095 359.055 877.787C361.258 878.477 363.559 878.818 365.959 878.808ZM442.114 888.687C437.614 888.706 433.411 887.974 429.504 886.49C425.598 885.007 422.238 882.621 419.424 879.332C416.61 876.044 414.393 871.854 412.771 866.76C411.15 861.667 410.324 855.521 410.293 848.321C410.263 841.121 411.037 834.967 412.616 829.861C414.194 824.754 416.376 820.545 419.163 817.233C421.949 813.921 425.288 811.507 429.182 809.991C433.076 808.474 437.273 807.707 441.773 807.688C446.273 807.669 450.376 808.401 454.082 809.886C457.888 811.37 461.098 813.756 463.712 817.045C466.326 820.334 468.344 824.526 469.765 829.62C471.287 834.714 472.063 840.86 472.093 848.06L472.105 850.91L422.455 851.119L422.476 856.069C422.508 863.669 424.232 869.362 427.648 873.148C431.164 876.833 435.971 878.663 442.071 878.637C447.271 878.615 451.517 877.497 454.807 875.283C458.098 872.97 460.683 869.559 462.564 865.051L470.388 870.718C468.011 876.028 464.479 880.343 459.793 883.663C455.207 886.982 449.314 888.657 442.114 888.687ZM441.813 817.288C435.613 817.314 430.821 819.284 427.438 823.198C424.054 827.112 422.378 832.87 422.41 840.47L422.419 842.42L459.918 842.262L459.91 840.312C459.845 824.912 453.813 817.237 441.813 817.288ZM511.431 888.395C505.031 888.422 499.525 887.145 494.914 884.565C490.403 881.984 486.538 878.4 483.319 873.813L491.241 867.18C493.957 870.969 496.869 873.856 499.978 875.843C503.186 877.83 506.99 878.814 511.39 878.795C515.89 878.776 519.435 877.661 522.026 875.45C524.716 873.139 526.053 869.883 526.035 865.683C526.021 862.283 525.159 859.537 523.45 857.444C521.742 855.351 518.585 853.915 513.982 853.134L508.128 852.109C500.622 850.74 495.012 848.414 491.298 845.129C487.684 841.845 485.863 836.852 485.835 830.152C485.819 826.252 486.405 822.9 487.593 820.095C488.781 817.19 490.471 814.833 492.663 813.023C494.855 811.114 497.449 809.753 500.446 808.941C503.542 808.028 506.89 807.564 510.49 807.548C516.29 807.524 521.144 808.553 525.053 810.637C529.062 812.62 532.524 815.556 535.44 819.443L528.119 826.224C526.409 823.831 524.15 821.741 521.342 819.953C518.535 818.065 514.931 817.13 510.531 817.148C501.431 817.187 496.898 821.356 496.933 829.656C496.949 833.456 497.911 836.252 499.818 838.044C501.826 839.735 505.031 840.972 509.434 841.753L515.289 842.778C523.194 844.145 528.805 846.572 532.119 850.058C535.434 853.544 537.104 858.287 537.129 864.287C537.161 871.787 534.986 877.696 530.604 882.014C526.322 886.232 519.931 888.359 511.431 888.395ZM571.197 886.343C567.098 886.361 564.094 885.473 562.186 883.681C560.378 881.789 559.466 878.793 559.448 874.693L559.214 819.043L547.814 819.091L547.772 809.041L554.522 809.013C556.822 809.003 558.319 808.447 559.015 807.344C559.81 806.141 560.202 804.389 560.193 802.089L560.132 787.689L570.482 787.646L570.572 808.945L585.571 808.882L585.614 818.932L570.614 818.995L570.855 876.295L585.105 876.235L585.147 886.285L571.197 886.343ZM650.738 886.008C646.638 886.026 643.634 885.138 641.727 883.346C639.919 881.454 639.006 878.458 638.989 874.358L638.754 818.708L627.354 818.756L627.312 808.706L634.062 808.678C636.362 808.668 637.86 808.112 638.555 807.009C639.35 805.806 639.743 804.054 639.733 801.754L639.672 787.354L650.022 787.311L650.112 808.61L665.112 808.547L665.154 818.597L650.154 818.66L650.395 875.96L664.645 875.9L664.688 885.95L650.738 886.008ZM708.713 887.564C704.213 887.583 700.01 886.851 696.103 885.367C692.197 883.884 688.837 881.498 686.023 878.21C683.209 874.922 680.992 870.731 679.37 865.638C677.749 860.545 676.923 854.398 676.893 847.198C676.862 839.998 677.636 833.845 679.215 828.738C680.793 823.631 682.976 819.422 685.762 816.11C688.548 812.799 691.888 810.385 695.781 808.868C699.675 807.352 703.872 806.584 708.372 806.565C712.872 806.546 717.075 807.278 720.981 808.762C724.887 810.246 728.247 812.631 731.061 815.92C733.875 819.208 736.093 823.399 737.714 828.492C739.336 833.585 740.162 839.732 740.192 846.931C740.222 854.131 739.448 860.285 737.87 865.391C736.291 870.498 734.109 874.707 731.323 878.019C728.537 881.331 725.197 883.745 721.303 885.261C717.41 886.778 713.213 887.545 708.713 887.564ZM708.67 877.364C714.87 877.338 719.612 875.468 722.896 871.755C726.281 868.04 727.957 862.383 727.925 854.783L727.859 839.183C727.827 831.583 726.103 825.941 722.688 822.255C719.372 818.569 714.615 816.739 708.415 816.765C702.215 816.791 697.423 818.661 694.038 822.376C690.754 826.089 689.128 831.746 689.16 839.346L689.225 854.946C689.257 862.546 690.931 868.189 694.247 871.875C697.662 875.561 702.47 877.391 708.67 877.364ZM757.565 808.158L768.965 808.11L769.018 820.71L770.518 820.704C771.996 815.597 774.381 811.937 777.672 809.723C781.062 807.409 785.157 806.242 789.957 806.222C794.557 806.202 798.611 807.135 802.119 809.02C805.627 810.906 808.588 813.593 811.003 817.083C813.418 820.573 815.235 824.815 816.457 829.81C817.678 834.805 818.301 840.402 818.327 846.602C818.353 852.802 817.777 858.405 816.598 863.41C815.419 868.415 813.637 872.672 811.252 876.182C808.867 879.693 805.928 882.405 802.436 884.32C798.944 886.234 794.898 887.201 790.298 887.221C785.498 887.241 781.393 886.158 777.984 883.973C774.675 881.687 772.259 877.997 770.738 872.903L769.238 872.909L769.417 915.509L758.017 915.557L757.565 808.158ZM786.805 877.035C793.105 877.009 797.897 875.039 801.18 871.125C804.463 867.111 806.09 861.554 806.06 854.454L805.995 838.854C805.965 831.754 804.291 826.261 800.975 822.375C797.658 818.389 792.85 816.409 786.55 816.436C784.15 816.446 781.851 816.806 779.654 817.515C777.557 818.224 775.712 819.232 774.117 820.538C772.623 821.845 771.379 823.4 770.387 825.204C769.494 827.008 769.053 829.01 769.062 831.21L769.193 862.409C769.203 864.609 769.661 866.608 770.569 868.404C771.576 870.2 772.833 871.744 774.338 873.038C775.944 874.331 777.798 875.323 779.901 876.015C782.104 876.705 784.405 877.046 786.805 877.035Z" fill="white"/>
</g>
<defs>
<clipPath id="clip0_1_3">
<rect width="960" height="960" fill="white"/>
</clipPath>
</defs>
</svg>
